<?xml version="1.0" encoding="UTF-8" standalone="no"?>
<!-- Created with Inkscape (http://www.inkscape.org/) -->

<svg
   width="199.89987mm"
   height="43.058254mm"
   viewBox="0 0 199.89987 43.058254"
   version="1.1"
   id="svg1"
   xml:space="preserve"
   inkscape:version="1.3.2 (091e20ef0f, 2023-11-25)"
   sodipodi:docname="proyecto lab..svg"
   xmlns:inkscape="http://www.inkscape.org/namespaces/inkscape"
   xmlns:sodipodi="http://sodipodi.sourceforge.net/DTD/sodipodi-0.dtd"
   xmlns="http://www.w3.org/2000/svg"
   xmlns:svg="http://www.w3.org/2000/svg"><sodipodi:namedview
     id="namedview1"
     pagecolor="#ffffff"
     bordercolor="#000000"
     borderopacity="0.25"
     inkscape:showpageshadow="2"
     inkscape:pageopacity="0.0"
     inkscape:pagecheckerboard="0"
     inkscape:deskcolor="#d1d1d1"
     inkscape:document-units="mm"
     inkscape:zoom="0.74843003"
     inkscape:cx="213.78084"
     inkscape:cy="257.87314"
     inkscape:window-width="1366"
     inkscape:window-height="714"
     inkscape:window-x="0"
     inkscape:window-y="0"
     inkscape:window-maximized="1"
     inkscape:current-layer="layer1" /><defs
     id="defs1" /><g
     inkscape:label="Capa 1"
     inkscape:groupmode="layer"
     id="layer1"
     transform="translate(-5.5283138,-41.966231)"><g
       id="g12"
       inkscape:export-filename="../Proyectos/proyectoLaboratorio/nombre.png"
       inkscape:export-xdpi="96"
       inkscape:export-ydpi="96"><text
         xml:space="preserve"
         style="font-size:26.7514px;font-family:'Ginger Cat';-inkscape-font-specification:'Ginger Cat, Normal';text-align:center;text-anchor:middle;fill:#000000;stroke:#000000;stroke-width:0.708808;stroke-linecap:square;stroke-linejoin:round;stroke-miterlimit:4.3;stroke-dashoffset:5.84002"
         x="100.03957"
         y="70.038132"
         id="text1"
         transform="scale(1.0550235,0.94784619)"><tspan
           sodipodi:role="line"
           id="tspan1"
           style="stroke-width:0.708808"
           x="100.03957"
           y="70.038132">SANA    ORIO</tspan></text><path
         id="text2"
         style="font-size:52.8785px;font-family:'Ginger Cat';-inkscape-font-specification:'Ginger Cat, Normal';text-align:center;text-anchor:middle;fill:#ff0000;stroke:#000000;stroke-width:0.920713;stroke-linecap:square;stroke-linejoin:round;stroke-miterlimit:4.3;stroke-dashoffset:5.84002"
         d="m 117.36845,42.426588 -13.55704,0.0084 0.57629,9.064874 2.01586,0.01826 c -0.18446,0.0017 -0.38004,0.0025 -0.56219,0.0043 -1.6502,0.01691 -3.12586,0.0338 -4.42697,0.05071 -1.26939,0.01691 -2.173647,0.02535 -2.713147,0.02535 h -0.95198 c -0.34907,0 -0.71399,0.0087 -1.0948,0.0256 -0.38082,0.01691 -0.74618,0.05068 -1.09527,0.101417 -0.31735,0.03382 -0.53941,0.101368 -0.66634,0.202834 -0.25388,0.08455 -0.42832,0.2199 -0.52353,0.405919 -0.0635,0.16911 -0.0795,0.329785 -0.0478,0.481984 v 0.989318 c 0,0.490418 -0.0156,1.014658 -0.0472,1.57272 v 1.598072 0.963966 c 0,0.236753 0.11088,0.45653 0.33296,0.659461 0.25387,0.186021 0.60321,0.270452 1.0475,0.253542 1.49152,-0.01691 2.96719,-0.02536 4.426977,-0.02536 1.4598,-0.01691 2.93546,-0.04224 4.42699,-0.07606 -0.12699,1.843292 -0.15899,3.669817 -0.0956,5.479287 0.0952,1.80947 0.22249,3.635744 0.38116,5.479037 0,0.13529 0.0156,0.279079 0.0473,0.431278 0.0635,0.152198 0.17473,0.287542 0.3334,0.405917 0.12699,0.08455 0.33298,0.143654 0.61859,0.177478 0.28561,0.05074 0.58733,0.0845 0.90467,0.101417 0.31736,0.01691 0.61862,0.02537 0.90423,0.02537 0.31735,0.01691 0.57146,0.02537 0.76187,0.02537 1.01551,-0.03383 2.01501,-0.05914 2.99877,-0.07606 1.01551,-0.01691 2.03104,-0.05068 3.04654,-0.101416 0.38081,-0.03383 0.76175,-0.05914 1.14257,-0.07606 0.41255,-0.01692 0.79348,-0.08471 1.14256,-0.203091 0.34908,-0.135283 0.52352,-0.338177 0.52352,-0.60875 -0.0317,-0.219845 -0.0793,-0.608743 -0.14282,-1.166797 -0.0635,-0.574975 -0.14268,-1.226117 -0.23788,-1.95329 -0.0635,-0.744076 -0.14313,-1.521872 -0.23834,-2.333596 -0.0952,-0.828632 -0.19044,-1.606679 -0.28564,-2.333847 -0.0635,-0.744083 -0.12673,-1.394972 -0.19013,-1.953033 -0.0635,-0.558061 -0.11101,-0.94721 -0.14281,-1.167052 0.25387,0 0.74562,0.0084 1.47551,0.02535 h 2.28513 2.28467 c 0.72989,-0.01691 1.22164,-0.0338 1.47551,-0.05071 l 0.47622,-0.05071 c 0.15867,-0.01691 0.26993,-0.05913 0.3334,-0.126771 0.0635,-0.05073 0.11061,-0.126721 0.14237,-0.228187 0.0317,-0.101466 0.0478,-0.203038 0.0478,-0.304504 0.0317,-0.118376 0.0478,-0.228392 0.0478,-0.329858 v -0.253541 c 0.15867,-0.760992 0.26949,-1.513454 0.33296,-2.257535 0.0952,-0.744081 0.17487,-1.496795 0.23833,-2.257787 0,-0.06764 0.0156,-0.16052 0.0473,-0.278896 0.0317,-0.135288 0.0478,-0.270633 0.0478,-0.40592 0.0317,-0.152199 0.0317,-0.287544 0,-0.40592 0,-0.135288 -0.0316,-0.228164 -0.095,-0.278896 -0.12699,-0.135288 -0.39661,-0.203087 -0.80916,-0.203087 h -0.76187 c -0.53948,-0.01691 -1.45976,-0.02535 -2.76089,-0.02535 h -4.42698 c -0.0234,0 -0.0516,2.51e-4 -0.075,2.54e-4 z" /><text
         xml:space="preserve"
         style="font-size:18.4141px;font-family:'Ginger Cat';-inkscape-font-specification:'Ginger Cat, Normal';text-align:center;text-anchor:middle;fill:#000000;stroke:none;stroke-width:0.487902;stroke-linecap:square;stroke-linejoin:round;stroke-miterlimit:4.3;stroke-dashoffset:5.84002"
         x="96.409828"
         y="94.108078"
         id="text11"
         transform="scale(1.1142707,0.89744799)"><tspan
           sodipodi:role="line"
           id="tspan11"
           x="96.409828"
           y="94.108078"
           style="fill:#000000;stroke-width:0.487902">CORRIENTES</tspan></text></g></g></svg>
